<?xml version="1.0" encoding="UTF-8"?>
<!DOCTYPE svg PUBLIC "-//W3C//DTD SVG 1.1//EN" "http://www.w3.org/Graphics/SVG/1.1/DTD/svg11.dtd">
<!-- Creator: CorelDRAW X7 -->
<svg xmlns="http://www.w3.org/2000/svg" xml:space="preserve" width="151.553mm" height="155.787mm" version="1.1" style="shape-rendering:geometricPrecision; text-rendering:geometricPrecision; image-rendering:optimizeQuality; fill-rule:evenodd; clip-rule:evenodd"
viewBox="0 0 15261 15687"
 xmlns:xlink="http://www.w3.org/1999/xlink">
 <defs>
  <style type="text/css">
   <![CDATA[
    .str0 {stroke:#FEFEFE;stroke-width:201.392}
    .fil2 {fill:none}
    .fil1 {fill:#FEFEFE}
    .fil0 {fill:#008FD7}
    .fil3 {fill:#008FD7;fill-rule:nonzero}
   ]]>
  </style>
 </defs>
 <g id="图层_x0020_1">
  <metadata id="CorelCorpID_0Corel-Layer"/>
  <circle class="fil0" cx="7575" cy="6033" r="3997"/>
  <g id="_1795188619712">
   <path class="fil1" d="M7585 3653c1143,0 2070,635 2070,1417 0,66 -2,110 -19,195 -17,85 -129,258 -288,309l-3522 0c-156,-45 -274,-219 -292,-309 -18,-89 -20,-129 -20,-195 0,-782 927,-1417 2071,-1417z"/>
   <path class="fil1" d="M7584 8220c1143,0 2069,-390 2069,-871 0,-41 -2,-67 -19,-120 -17,-53 -129,-159 -288,-190l-3521 0c-155,28 -273,135 -292,190 -18,55 -19,79 -19,120 0,481 927,871 2070,871z"/>
   <rect class="fil1" x="5498" y="6425" width="4157" height="435" rx="744" ry="697"/>
   <path class="fil2 str0" d="M5512 6155c63,-1 127,-1 229,-74 103,-73 244,-218 387,-181 143,37 287,257 451,246 165,-11 349,-252 519,-252 170,0 325,241 487,245 162,4 331,-230 489,-230 159,0 306,234 464,242 157,7 325,-211 468,-249 143,-39 263,102 367,172 103,71 192,71 281,71"/>
  </g>
  <path class="fil3" d="M1313 10790c-51,93 -97,163 -137,209 -41,47 -73,70 -98,70 -35,0 -52,-40 -52,-119 0,-78 10,-147 33,-209 22,-61 53,-116 93,-164 40,-48 87,-88 141,-122 55,-33 116,-61 181,-82 65,-22 133,-38 206,-49 73,-10 147,-15 224,-15 89,0 179,7 269,19 89,14 176,32 259,56 83,23 160,52 232,86 72,33 134,70 188,111 53,40 95,85 125,132 31,47 46,96 46,148 0,61 -13,121 -40,180 -26,59 -68,112 -124,160 -57,48 -129,87 -217,118 -88,31 -194,47 -316,50 78,0 146,12 204,37 59,25 108,58 147,100 39,43 69,92 89,147 19,55 30,113 30,174 0,50 -7,100 -21,151 -13,52 -33,101 -60,148 -27,48 -61,92 -101,134 -40,41 -87,77 -141,108 -54,31 -115,55 -183,73 -68,18 -143,26 -224,26 -51,0 -105,-3 -162,-10 -57,-7 -114,-15 -173,-27 -57,-11 -114,-25 -170,-41 -57,-16 -109,-33 -159,-51 -22,-5 -41,-14 -58,-25 -17,-10 -26,-30 -26,-59 0,-131 3,-265 10,-402 7,-137 20,-272 41,-403 20,-131 50,-256 89,-375 38,-118 90,-225 153,-318 57,-39 108,-59 153,-59 58,0 106,33 145,97 -36,49 -68,104 -93,164 -26,60 -47,123 -65,189 -17,66 -31,133 -42,201 -11,69 -19,136 -25,202 -4,37 -7,76 -10,118 -3,42 -6,85 -8,128 -2,43 -4,87 -5,130 -1,43 -2,84 -2,124 0,6 0,15 1,25 0,11 1,23 2,35 2,11 4,22 8,33 3,9 7,16 14,21 48,16 100,29 155,41 55,11 110,16 166,16 67,0 132,-8 195,-24 63,-17 119,-42 168,-77 49,-35 88,-80 118,-135 29,-55 44,-121 44,-200 0,-45 -8,-83 -26,-114 -17,-30 -40,-56 -68,-76 -28,-21 -60,-37 -96,-49 -36,-12 -72,-24 -110,-33 -37,-10 -74,-20 -110,-30 -36,-9 -68,-21 -96,-36 -28,-14 -50,-32 -68,-54 -17,-22 -26,-50 -26,-85 0,-16 1,-31 3,-43 2,-12 7,-22 14,-30 8,-8 19,-14 33,-18 15,-4 35,-6 60,-6 34,0 65,2 93,4 28,3 58,5 91,5 75,0 144,-10 205,-28 61,-19 113,-44 156,-76 43,-31 76,-68 100,-110 23,-42 35,-88 35,-136 0,-31 -9,-60 -28,-87 -18,-26 -43,-50 -76,-71 -33,-21 -71,-39 -115,-55 -45,-16 -93,-29 -145,-40 -52,-10 -107,-18 -164,-23 -58,-5 -116,-8 -176,-8 -74,0 -149,4 -221,12 -74,9 -141,21 -204,38 -63,17 -119,39 -167,64 -49,26 -86,56 -111,90z"/>
  <path id="1" class="fil3" d="M3809 11305c0,21 -2,50 -7,87 -5,36 -11,77 -19,121 -7,43 -15,88 -24,135 -9,47 -17,90 -24,130 -8,40 -14,76 -19,106 -4,31 -7,52 -7,64 0,22 1,42 1,61 1,18 4,34 8,48 4,14 10,24 18,32 8,7 20,11 36,11 18,0 39,-4 63,-13 25,-8 52,-20 80,-35 28,-14 56,-31 86,-49 29,-19 57,-38 83,-59 26,-21 51,-41 72,-61 22,-20 39,-39 53,-56 0,26 0,50 0,71 1,21 1,42 1,61 0,19 0,39 1,59 0,21 0,44 0,69 -17,18 -39,36 -64,56 -26,20 -54,40 -85,59 -32,20 -65,39 -100,57 -35,18 -71,34 -106,48 -35,14 -70,25 -105,33 -35,8 -67,13 -97,13 -30,0 -56,-6 -77,-18 -22,-12 -40,-29 -55,-50 -16,-21 -29,-47 -40,-76 -10,-30 -19,-63 -27,-99 -29,37 -59,71 -90,102 -32,32 -64,59 -97,81 -32,23 -66,41 -99,54 -34,13 -66,20 -98,20 -26,0 -50,-5 -73,-13 -23,-9 -43,-24 -61,-44 -18,-21 -32,-47 -42,-81 -11,-34 -15,-75 -15,-125 0,-61 7,-138 21,-232 15,-94 33,-201 54,-322 2,-12 5,-28 9,-48 4,-20 10,-42 18,-66 7,-24 17,-48 28,-72 11,-24 24,-47 39,-66 15,-20 32,-36 52,-49 21,-12 43,-19 68,-20 42,1 72,7 90,16 19,9 27,20 27,34 -6,42 -14,88 -23,139 -8,52 -16,103 -25,156 -8,52 -17,102 -25,151 -8,50 -15,94 -21,133 -7,38 -11,70 -15,93 -3,24 -5,36 -5,37 0,14 1,28 4,41 3,13 7,24 12,35 6,10 13,18 22,24 8,7 19,10 30,10 18,0 36,-4 54,-14 18,-9 35,-22 51,-39 16,-17 31,-37 43,-63 13,-24 23,-52 29,-84l117 -602c4,-19 20,-34 48,-47 28,-13 60,-20 95,-20 41,0 73,7 96,21 24,14 36,33 36,55z"/>
  <path id="2" class="fil3" d="M4062 12117c0,-35 2,-75 6,-122 4,-46 9,-95 16,-145 7,-52 14,-104 24,-158 9,-53 18,-104 29,-152 10,-48 20,-92 30,-132 11,-41 21,-74 31,-100 7,-17 13,-31 19,-41 6,-10 14,-18 22,-24 8,-6 19,-10 31,-12 12,-2 27,-3 45,-3 21,0 37,1 48,3 12,2 20,6 26,14 5,8 9,18 10,33 1,14 2,33 2,58 0,29 0,64 0,105 0,42 0,83 2,123l13 0c16,-32 33,-67 53,-106 20,-39 43,-76 69,-110 26,-34 55,-62 88,-85 34,-24 72,-35 116,-35 15,0 29,2 43,8 14,5 27,12 37,22 11,9 20,21 26,34 6,14 10,30 10,47 0,13 -2,32 -6,56 -4,25 -9,50 -13,76 -5,27 -10,52 -13,77 -4,25 -6,46 -6,62 0,29 2,52 8,71 5,19 13,34 22,46 9,11 19,19 31,24 11,5 23,7 36,7 35,0 72,-8 110,-24 38,-15 72,-33 104,-53 37,-23 73,-49 109,-78l-18 277c-20,14 -44,29 -70,45 -26,17 -54,32 -83,47 -30,15 -61,27 -93,37 -31,9 -64,14 -97,14 -59,0 -107,-12 -143,-36 -37,-24 -65,-55 -87,-94 -21,-39 -37,-83 -47,-132 -10,-48 -19,-97 -25,-147l-19 0 -212 590c-11,31 -21,57 -31,77 -10,20 -20,36 -30,49 -11,13 -22,21 -34,27 -12,5 -25,7 -39,7 -32,0 -58,-7 -78,-20 -20,-14 -35,-33 -45,-56 -11,-23 -18,-50 -22,-79 -3,-30 -5,-60 -5,-92z"/>
  <path id="3" class="fil3" d="M5574 12240c-43,38 -87,69 -134,92 -46,23 -91,35 -134,35 -38,0 -75,-8 -111,-23 -36,-16 -67,-38 -95,-67 -27,-29 -50,-64 -66,-105 -17,-42 -25,-88 -25,-140 0,-60 8,-120 25,-182 16,-63 39,-124 69,-184 29,-59 63,-116 103,-168 40,-53 84,-99 131,-139 47,-39 97,-71 150,-94 52,-23 106,-35 160,-35 18,0 33,4 43,11 10,7 18,15 25,24 7,9 13,18 20,27 6,8 14,15 23,19 10,3 19,6 29,8 10,1 20,1 31,1 8,0 17,0 26,0 9,-1 18,-1 27,-1 12,0 23,1 33,4 10,2 19,7 27,15 8,8 14,19 19,33 4,14 6,34 6,58 0,20 -2,48 -4,83 -4,35 -8,73 -14,116 -5,43 -11,88 -18,135 -7,48 -14,95 -21,141 -16,109 -35,225 -57,349 24,-14 50,-30 77,-49 28,-20 59,-47 93,-80 34,-33 72,-75 113,-125 42,-50 89,-113 141,-187l57 262c-14,25 -32,50 -55,75 -22,26 -47,52 -74,78 -28,25 -56,50 -86,74 -29,24 -58,47 -87,68 -67,51 -139,100 -217,147 -15,84 -32,167 -53,247 -20,80 -44,155 -73,224 -28,70 -59,135 -95,193 -36,58 -77,109 -122,151 -46,41 -97,74 -152,97 -57,23 -118,35 -186,35 -27,0 -56,-3 -88,-8 -31,-6 -59,-17 -86,-34 -26,-16 -48,-40 -65,-71 -18,-30 -26,-71 -27,-122 1,-36 10,-76 28,-121 18,-44 43,-91 74,-141 32,-49 69,-100 113,-153 43,-54 90,-107 141,-160 51,-53 105,-105 160,-156 56,-51 112,-100 169,-147l32 -110zm-262 -259c0,20 1,39 4,57 3,19 8,35 15,50 7,14 16,26 29,36 11,8 26,13 44,13 29,0 56,-13 80,-38 23,-25 44,-56 61,-91 18,-36 32,-72 42,-110 11,-38 18,-69 21,-95l72 -348c-32,0 -64,8 -95,24 -30,17 -59,38 -86,66 -28,28 -53,59 -76,95 -23,35 -42,73 -59,112 -17,39 -29,78 -38,117 -9,40 -14,77 -14,112zm-175 1255c33,0 65,-10 94,-29 30,-19 57,-45 82,-76 24,-32 47,-68 68,-108 20,-41 38,-82 54,-124 16,-42 29,-84 41,-124 10,-40 19,-76 25,-108 -30,21 -62,45 -94,74 -32,28 -63,59 -93,92 -30,32 -60,66 -87,101 -27,34 -51,68 -71,100 -21,32 -37,62 -49,89 -12,28 -17,51 -17,69 0,29 15,44 47,44z"/>
  <path id="4" class="fil3" d="M6584 12364c-74,0 -139,-13 -195,-40 -56,-27 -102,-63 -139,-108 -37,-46 -65,-98 -83,-158 -19,-59 -28,-122 -28,-187 0,-45 4,-91 13,-141 8,-49 21,-97 39,-145 18,-47 40,-92 67,-135 27,-43 58,-81 94,-114 36,-33 76,-59 121,-78 45,-19 94,-29 149,-29 44,0 85,7 123,21 37,14 71,35 98,60 29,26 51,57 66,93 16,36 24,77 24,122 0,49 -12,98 -36,147 -24,49 -58,95 -100,138 -43,44 -93,82 -152,116 -59,34 -123,61 -192,80 12,21 24,39 35,53 12,14 24,25 35,33 12,8 25,13 38,17 12,3 27,4 42,4 47,0 97,-9 149,-28 53,-19 104,-43 154,-71 49,-29 96,-59 141,-93 44,-33 81,-65 112,-95l153 158c-70,72 -143,135 -222,191 -34,24 -70,47 -109,70 -39,23 -80,43 -123,61 -43,18 -88,32 -134,42 -46,11 -93,16 -140,16zm-158 -556c29,0 60,-7 93,-22 34,-14 65,-33 94,-56 28,-23 53,-48 72,-75 20,-27 30,-53 30,-78 0,-35 -7,-64 -20,-88 -12,-23 -29,-34 -48,-34 -34,0 -62,7 -86,19 -24,13 -45,29 -61,49 -16,20 -29,43 -39,69 -10,26 -17,51 -23,77 -4,27 -8,52 -10,76 -1,25 -2,46 -2,63z"/>
  <path id="5" class="fil3" d="M7115 12117c0,-35 2,-75 6,-122 4,-46 10,-95 16,-145 7,-52 15,-104 24,-158 9,-53 19,-104 29,-152 10,-48 20,-92 31,-132 10,-41 20,-74 31,-100 6,-17 12,-31 19,-41 6,-10 13,-18 21,-24 9,-6 19,-10 31,-12 12,-2 28,-3 46,-3 20,0 36,1 48,3 11,2 20,6 25,14 6,8 9,18 10,33 1,14 2,33 2,58 0,29 0,64 0,105 0,42 1,83 2,123l13 0c16,-32 34,-67 54,-106 19,-39 42,-76 68,-110 26,-34 56,-62 89,-85 33,-24 71,-35 115,-35 15,0 30,2 44,8 14,5 26,12 37,22 11,9 19,21 25,34 7,14 10,30 10,47 0,13 -2,32 -6,56 -4,25 -8,50 -13,76 -5,27 -9,52 -13,77 -4,25 -6,46 -6,62 0,29 3,52 9,71 5,19 12,34 21,46 9,11 20,19 31,24 11,5 24,7 36,7 36,0 72,-8 110,-24 38,-15 73,-33 105,-53 36,-23 73,-49 108,-78l-17 277c-21,14 -44,29 -70,45 -26,17 -54,32 -84,47 -30,15 -60,27 -92,37 -32,9 -64,14 -98,14 -59,0 -107,-12 -143,-36 -36,-24 -65,-55 -86,-94 -22,-39 -38,-83 -48,-132 -10,-48 -18,-97 -25,-147l-18 0 -213 590c-10,31 -21,57 -31,77 -10,20 -20,36 -30,49 -10,13 -21,21 -33,27 -12,5 -25,7 -39,7 -33,0 -59,-7 -78,-20 -20,-14 -35,-33 -46,-56 -10,-23 -18,-50 -21,-79 -4,-30 -6,-60 -6,-92z"/>
  <path id="6" class="fil3" d="M8854 10811c0,52 16,99 46,140 30,41 71,79 121,114 50,35 107,68 170,100 64,32 129,64 195,98 67,33 133,69 196,108 63,38 120,81 171,129 50,48 90,103 120,164 31,60 46,130 46,208 0,71 -12,136 -35,196 -22,60 -54,113 -94,160 -39,47 -87,89 -141,126 -54,36 -113,66 -177,90 -63,23 -129,41 -198,54 -70,12 -140,18 -210,18 -99,0 -194,-12 -288,-36 -93,-24 -176,-61 -248,-109 -73,-49 -131,-109 -175,-182 -44,-74 -66,-159 -66,-257 0,-50 8,-95 24,-133 17,-38 37,-70 61,-96 24,-26 50,-45 79,-58 28,-13 54,-19 79,-19 25,0 47,7 64,20 17,14 25,36 25,65 0,13 -2,27 -5,42 -3,15 -6,32 -10,50 -4,17 -7,37 -10,58 -3,22 -5,45 -5,70 0,55 13,103 38,143 25,41 59,74 101,100 42,26 90,45 144,58 55,12 111,19 169,19 69,0 138,-9 206,-25 69,-17 131,-41 185,-73 55,-33 99,-73 133,-120 34,-46 51,-100 51,-161 0,-56 -15,-106 -46,-151 -30,-44 -70,-84 -121,-122 -50,-38 -107,-73 -171,-106 -64,-33 -129,-67 -195,-101 -66,-33 -131,-69 -195,-107 -65,-37 -121,-78 -172,-124 -50,-45 -90,-95 -120,-150 -31,-56 -46,-120 -46,-190 0,-67 16,-132 48,-196 32,-65 80,-122 145,-173 64,-51 144,-92 241,-124 96,-31 208,-47 338,-47 82,0 163,12 241,37 78,24 149,59 210,103 62,46 111,99 149,162 37,62 56,131 56,207 0,45 -8,91 -23,138 -15,47 -40,97 -74,148 -33,50 -69,87 -109,111 -38,24 -74,36 -106,36 -23,0 -42,-7 -57,-21 -15,-14 -23,-34 -23,-62 0,-20 5,-45 14,-72 10,-29 26,-61 49,-97 21,-35 37,-67 47,-98 10,-30 16,-58 16,-84 0,-41 -11,-76 -33,-107 -22,-30 -52,-55 -90,-76 -38,-20 -84,-35 -138,-46 -54,-10 -112,-15 -176,-15 -71,0 -133,8 -186,24 -52,16 -96,37 -131,63 -35,25 -61,54 -78,86 -17,31 -26,62 -26,93z"/>
  <path id="7" class="fil3" d="M11130 12099c-76,44 -143,83 -202,116 -60,33 -112,61 -159,83 -46,22 -87,39 -123,50 -36,11 -68,16 -97,16 -60,0 -113,-18 -159,-54 -46,-37 -84,-89 -115,-157 -31,-68 -54,-151 -69,-248 -15,-97 -23,-206 -23,-328 0,-47 2,-98 6,-151 4,-54 9,-107 16,-160 -23,-4 -42,-6 -55,-9 -13,-3 -27,-6 -41,-8 -15,-3 -33,-6 -56,-9 -22,-3 -55,-8 -98,-12 -19,-2 -33,-7 -43,-14 -10,-7 -18,-14 -23,-24 -4,-8 -7,-18 -8,-28 -1,-10 -1,-18 -1,-25 0,-16 8,-28 23,-36 15,-9 35,-15 59,-19 24,-4 50,-6 79,-6 29,-1 57,0 83,0 27,1 50,2 71,2 21,1 36,0 43,-2 22,-106 49,-210 81,-309 33,-100 70,-189 111,-267 40,-77 85,-140 133,-187 48,-47 98,-70 151,-70 34,0 65,9 93,28 29,19 52,45 72,76 20,32 35,68 45,111 11,42 17,86 17,132 0,38 -6,79 -17,122 -11,43 -26,87 -45,132 -19,44 -41,89 -67,135 -26,46 -52,91 -81,136 7,1 19,2 35,2 17,1 36,1 58,2 22,1 45,2 70,3 26,1 50,2 74,3 24,1 45,1 66,2 21,1 38,2 51,2 16,1 27,9 34,24 7,15 11,34 11,57 0,28 -8,50 -24,68 -15,17 -33,26 -52,26l-454 0c-24,31 -47,62 -70,93 -23,30 -44,57 -64,82 -3,49 -6,97 -9,144 0,21 -1,42 -2,64 -1,21 -1,43 -2,64 -1,21 -2,42 -2,62 -1,20 -1,38 -1,54 0,43 4,79 12,108 8,29 20,53 34,71 15,19 34,32 55,41 22,8 47,12 74,12 16,0 37,-4 61,-12 25,-8 53,-18 82,-32 30,-14 61,-30 94,-49 33,-19 65,-40 97,-63 32,-22 62,-46 92,-70 29,-25 55,-51 79,-77l0 303zm-379 -1499c0,-8 0,-18 -2,-29 -1,-10 -4,-20 -7,-30 -4,-9 -10,-17 -19,-23 -8,-7 -20,-10 -35,-10 -20,0 -41,18 -62,54 -21,37 -41,83 -60,139 -19,57 -38,119 -55,187 -17,68 -32,134 -46,198 11,1 23,3 35,4 12,1 24,3 37,4 23,-40 48,-84 74,-131 25,-47 48,-93 69,-138 21,-46 38,-88 51,-128 13,-39 20,-71 20,-97z"/>
  <path id="8" class="fil3" d="M12332 12074c-18,26 -43,55 -73,89 -31,34 -64,66 -102,97 -38,31 -79,57 -123,78 -43,22 -86,32 -130,32 -52,0 -95,-17 -130,-50 -35,-34 -65,-82 -90,-146 -19,22 -42,44 -70,67 -27,23 -58,44 -90,62 -33,19 -67,34 -103,46 -35,12 -71,18 -106,18 -38,0 -75,-8 -111,-23 -36,-16 -68,-38 -95,-67 -28,-29 -50,-64 -67,-105 -16,-42 -24,-88 -24,-140 0,-60 8,-120 24,-182 17,-63 40,-124 69,-184 29,-59 64,-116 104,-168 40,-53 83,-99 131,-139 47,-39 97,-71 149,-94 53,-23 106,-35 161,-35 18,0 32,4 42,11 10,7 19,15 26,24 7,9 13,18 19,27 7,8 15,15 24,19 9,3 19,6 29,8 10,1 20,1 30,1 9,0 18,0 27,0 9,-1 18,-1 26,-1 12,0 23,1 33,4 11,2 20,7 28,15 8,8 14,19 18,33 5,14 7,34 7,58 0,38 -4,80 -12,126 -8,46 -17,94 -26,142 -10,49 -18,97 -26,146 -8,49 -12,94 -12,138 0,37 3,66 10,87 7,21 21,31 43,31 17,0 34,-4 52,-12 18,-9 37,-19 55,-33 19,-13 38,-28 56,-45 18,-17 36,-35 53,-53 39,-43 77,-91 117,-144l57 262zm-1011 -93c0,20 1,39 4,57 3,19 8,35 14,50 8,14 17,26 29,36 12,8 27,13 45,13 29,0 56,-13 79,-38 24,-25 45,-56 62,-91 17,-36 31,-72 42,-110 11,-38 17,-69 21,-95l72 -348c-32,0 -64,8 -95,24 -31,17 -60,38 -87,66 -27,28 -52,59 -75,95 -23,35 -43,73 -59,112 -17,39 -30,78 -39,117 -9,40 -13,77 -13,112z"/>
  <path id="9" class="fil3" d="M12558 12364c-73,0 -136,-13 -191,-40 -55,-27 -101,-63 -138,-108 -37,-45 -65,-97 -84,-156 -19,-59 -28,-121 -28,-185 0,-45 4,-93 14,-143 9,-49 23,-98 42,-146 18,-48 41,-93 68,-137 27,-43 59,-81 95,-114 36,-33 76,-59 120,-78 44,-20 93,-29 146,-29 45,0 86,7 125,21 38,13 71,32 98,57 27,24 48,53 64,87 15,33 23,70 23,108 0,27 -4,54 -11,80 -7,26 -17,49 -31,70 -14,21 -31,38 -50,50 -20,13 -42,19 -67,19 -37,0 -61,-9 -72,-29 -12,-20 -18,-47 -18,-82 0,-14 1,-29 2,-45 1,-16 2,-30 2,-43 0,-19 -2,-34 -6,-47 -4,-12 -13,-19 -26,-19 -32,0 -60,8 -83,23 -23,16 -42,36 -58,61 -17,24 -30,52 -39,84 -10,31 -17,62 -22,93 -6,30 -10,60 -11,88 -2,28 -2,51 -2,70 0,28 2,58 7,89 5,31 15,59 29,85 14,25 34,46 58,63 24,17 56,26 95,26 38,0 80,-11 125,-35 46,-23 92,-52 138,-88 46,-36 90,-75 132,-117 42,-43 78,-83 108,-121l82 137c-60,85 -123,160 -192,226 -29,29 -61,56 -95,83 -35,27 -71,51 -108,72 -38,21 -77,38 -118,51 -40,13 -81,19 -123,19z"/>
  <path id="10" class="fil3" d="M13443 11702c29,-36 60,-76 94,-119 34,-43 67,-85 100,-124 33,-40 63,-75 90,-106 27,-30 49,-51 65,-62 24,-18 54,-33 89,-45 36,-12 75,-18 119,-18 22,0 43,5 63,15 20,10 38,25 53,44 15,19 27,42 35,69 9,26 14,56 14,90 0,32 -9,64 -24,97 -16,33 -36,66 -59,99 -24,33 -50,67 -78,100 -27,33 -53,66 -76,100 -24,33 -44,67 -60,100 -15,33 -23,66 -23,99 0,29 7,49 20,61 14,12 36,18 65,18 16,0 33,-5 51,-15 19,-11 38,-25 58,-43 20,-17 39,-36 60,-58 20,-21 39,-43 58,-65 18,-22 36,-43 52,-63 17,-20 32,-37 45,-52l71 291c-24,35 -55,68 -93,98 -37,31 -78,57 -122,80 -43,22 -89,40 -136,52 -47,13 -92,19 -135,19 -57,0 -103,-7 -139,-20 -36,-14 -64,-33 -85,-56 -21,-22 -34,-48 -42,-77 -7,-29 -11,-58 -11,-90 0,-18 2,-40 6,-66 5,-27 13,-56 25,-89 12,-34 30,-70 52,-110 22,-40 50,-83 86,-129 14,-14 27,-27 39,-38 12,-12 22,-22 31,-31 9,-9 15,-17 20,-25 5,-8 7,-17 7,-25 0,-17 -3,-30 -9,-41 -6,-10 -14,-15 -25,-15 -14,0 -31,9 -52,26 -22,18 -45,48 -70,91l-348 611c-18,32 -37,54 -57,66 -19,12 -41,18 -66,18 -34,0 -61,-7 -81,-21 -19,-15 -34,-35 -45,-60 -10,-25 -17,-54 -19,-86 -3,-33 -4,-68 -4,-105 0,-45 1,-105 4,-179 3,-74 8,-155 15,-244 6,-89 14,-182 25,-279 11,-97 24,-191 38,-283 6,-32 13,-72 22,-118 8,-46 19,-96 32,-149 13,-52 28,-107 46,-164 18,-58 39,-114 62,-167 23,-54 49,-106 79,-155 29,-49 62,-92 98,-128 36,-37 76,-66 120,-87 43,-22 90,-32 142,-32 40,0 73,6 99,19 26,13 47,32 62,55 16,23 26,51 33,83 6,33 9,68 9,105 0,67 -8,140 -25,217 -17,77 -39,155 -65,233 -26,78 -54,153 -85,226 -31,74 -60,140 -89,200 -28,59 -53,109 -75,149 -22,41 -36,68 -43,80l-141 211 28 17zm233 -1329c-26,0 -48,8 -66,24 -18,16 -35,38 -51,67 -16,29 -33,65 -49,107 -16,42 -34,88 -55,139 -12,46 -24,92 -35,140 -10,48 -20,96 -29,144 -8,48 -16,95 -23,141 -6,47 -12,91 -17,132 -12,97 -21,193 -28,286 17,-52 36,-108 56,-169 21,-62 41,-122 61,-182 21,-59 40,-116 57,-169 18,-53 33,-98 45,-136 5,-17 13,-39 23,-65 11,-25 22,-54 33,-84 12,-30 24,-61 36,-93 12,-33 23,-64 33,-94 9,-30 17,-58 24,-84 6,-26 9,-48 9,-66 0,-26 -8,-38 -24,-38z"/>
  <rect class="fil2" width="15261" height="15687"/>
 </g>
</svg>
